<svg width="14" height="12" viewBox="0 0 14 12" fill="none" xmlns="http://www.w3.org/2000/svg">
<path d="M4.75781 11.0039L0.191406 6.46484C0.0638021 6.33724 0 6.17318 0 5.97266C0 5.77214 0.0638021 5.60807 0.191406 5.48047L1.20312 4.49609C1.33073 4.35026 1.49023 4.27734 1.68164 4.27734C1.87305 4.27734 2.04167 4.35026 2.1875 4.49609L5.25 7.55859L11.8125 0.996094C11.9583 0.850261 12.127 0.777344 12.3184 0.777344C12.5098 0.777344 12.6693 0.850261 12.7969 0.996094L13.8086 1.98047C13.9362 2.10807 14 2.27214 14 2.47266C14 2.67318 13.9362 2.83724 13.8086 2.96484L5.74219 11.0039C5.61458 11.1497 5.45052 11.2227 5.25 11.2227C5.04948 11.2227 4.88542 11.1497 4.75781 11.0039Z" fill="#E56D09"/>
</svg>
